<svg width="100" height="97" viewBox="0 0 100 97" fill="none" xmlns="http://www.w3.org/2000/svg">
<path d="M82.209 1.82349C84.3856 1.82349 86.1504 3.58834 86.1504 5.76492V24.1596V28.101C86.1504 30.2784 84.3856 32.0425 82.209 32.0425H62.419L55.708 42.0394C54.9845 43.1168 53.3033 42.6051 53.3033 41.3074V32.044H49.3618C47.1853 32.044 45.4204 30.2792 45.4204 28.1026V5.76492C45.4204 3.58756 47.1853 1.82349 49.3618 1.82349H55.9314H82.209Z" fill="#23D4CE"/>
<path d="M92.6163 9.06179C91.6093 9.06179 90.7929 9.8782 90.7929 10.8852C90.7929 11.8923 91.6101 12.7087 92.6163 12.7087C94.6765 12.7087 96.3515 14.3845 96.3515 16.4439V62.7966H52.9473C52.9512 61.863 52.9567 60.7747 52.9582 60.67V60.3919C52.9379 57.5208 51.9574 54.8739 49.9551 52.291C48.1168 49.9504 45.791 48.859 43.3285 47.7027C42.616 47.3683 41.8777 47.0222 41.1167 46.6277C40.4105 46.2621 39.5495 46.3941 38.9878 46.9574L32.8573 53.091L26.7291 46.9582C26.208 46.4363 25.4229 46.2808 24.7439 46.5605C24.0658 46.8402 18.0494 49.373 15.7509 52.3004C13.7564 54.8731 12.7751 57.52 12.7556 60.3794V60.67C12.7571 60.777 12.7618 61.8645 12.7657 62.7974H3.64768V16.4447C3.64768 14.3853 5.3227 12.7095 7.38287 12.7095H39.5433C40.5503 12.7095 41.3667 11.8931 41.3667 10.886C41.3667 9.87898 40.5495 9.06257 39.5433 9.06257H7.38287C3.31174 9.06257 0 12.3751 0 16.4454V70.181C0 74.2521 3.31174 77.5639 7.38287 77.5639H37.0581V85.0046C37.0581 85.0147 37.0612 85.0241 37.0612 85.0335H33.3229C32.8393 85.0335 32.3753 85.2257 32.0338 85.5679L28.3283 89.2741C27.9862 89.6163 27.794 90.0796 27.794 90.564V94.5781C27.794 95.5859 28.6112 96.4015 29.6174 96.4015H72.2349C73.242 96.4015 74.0584 95.5851 74.0584 94.5781V90.564C74.0584 90.0804 73.8662 89.6163 73.524 89.2741L69.8185 85.5679C69.4763 85.2257 69.0123 85.0335 68.5294 85.0335H64.7911C64.7911 85.0233 64.7943 85.0139 64.7943 85.0046V77.5639H92.6171C96.6883 77.5639 100 74.2514 100 70.181V16.4447C99.9992 12.3735 96.6883 9.06179 92.6163 9.06179ZM16.4033 60.6161V60.4184C16.4173 58.3762 17.1478 56.452 18.6275 54.5442C19.7173 53.1567 22.7728 51.4582 25.0299 50.4176L31.5674 56.9598C31.9104 57.302 32.3737 57.495 32.8581 57.495C33.3424 57.495 33.8057 57.3028 34.1471 56.9606L40.6394 50.4652C41.0253 50.652 41.405 50.8301 41.7777 51.0059C44.016 52.0559 45.784 52.8864 47.0793 54.5356C48.566 56.4536 49.2957 58.3778 49.3105 60.4333V60.6169C49.309 60.7091 49.3043 61.8403 49.2996 62.7981H16.4134C16.4095 61.8395 16.404 60.7083 16.4033 60.6161ZM70.4107 91.3179V92.7531H31.4409V91.3179L34.0776 88.6804H67.7732L70.4107 91.3179ZM61.1489 85.0327H40.7027C40.7027 85.0225 40.7058 85.0132 40.7058 85.0038V77.5631H61.1458V85.0038C61.1458 85.0132 61.1489 85.0225 61.1489 85.0327ZM92.6163 73.9154H62.9692H38.8816H7.38287C5.3227 73.9154 3.64768 72.2396 3.64768 70.1802V66.4451H96.3515V70.1802C96.3515 72.2396 94.6765 73.9154 92.6163 73.9154ZM72.1193 16.4954C72.1193 15.4876 72.9365 14.672 73.9428 14.672H78.6506C79.6576 14.672 80.4741 15.4884 80.4741 16.4954C80.4741 17.5033 79.6569 18.3189 78.6506 18.3189H73.9428C72.9365 18.3197 72.1193 17.5033 72.1193 16.4954ZM61.6075 16.4954C61.6075 15.4876 62.4247 14.672 63.431 14.672H68.1388C69.1459 14.672 69.9623 15.4884 69.9623 16.4954C69.9623 17.5033 69.1451 18.3189 68.1388 18.3189H63.431C62.4247 18.3197 61.6075 17.5033 61.6075 16.4954ZM49.3613 33.8675H51.4793V41.3089C51.4793 42.6996 52.3731 43.9058 53.7035 44.3105C54.0098 44.4035 54.3207 44.4488 54.627 44.4488C55.6504 44.4488 56.6254 43.9457 57.2215 43.0574L63.3911 33.8675H82.2092C85.3889 33.8675 87.9749 31.2815 87.9749 28.1026V5.76489C87.9749 2.58596 85.3889 0 82.2092 0H49.3613C46.1816 0 43.5957 2.58596 43.5957 5.76489V28.1018C43.5957 31.2815 46.1816 33.8675 49.3613 33.8675ZM47.2433 5.76489C47.2433 4.59691 48.1933 3.6469 49.3613 3.6469H82.2092C83.3772 3.6469 84.3272 4.59691 84.3272 5.76489V28.1018C84.3272 29.2698 83.3772 30.2198 82.2092 30.2198H62.4185C61.8106 30.2198 61.2427 30.5229 60.9044 31.0268L55.127 39.6331V32.044C55.127 31.0362 54.3098 30.2205 53.3035 30.2205H49.3613C48.1933 30.2205 47.2433 29.2705 47.2433 28.1026V5.76489ZM51.0965 16.4954C51.0965 15.4876 51.9137 14.672 52.9199 14.672H57.6278C58.6348 14.672 59.4512 15.4884 59.4512 16.4954C59.4512 17.5033 58.6341 18.3189 57.6278 18.3189H52.9199C51.9129 18.3197 51.0965 17.5033 51.0965 16.4954ZM32.8557 28.1588C27.4924 28.1588 23.1291 32.5221 23.1291 37.8855C23.1291 43.2488 27.4924 47.6121 32.8557 47.6121C38.219 47.6121 42.5824 43.2488 42.5824 37.8855C42.5824 32.5221 38.219 28.1588 32.8557 28.1588ZM32.8557 43.9652C29.5041 43.9652 26.7768 41.2378 26.7768 37.8862C26.7768 34.5346 29.5041 31.8073 32.8557 31.8073C36.2073 31.8073 38.9347 34.5346 38.9347 37.8862C38.9347 41.2378 36.2081 43.9652 32.8557 43.9652Z" fill="#2D2D2D"/>
</svg>
