<svg width="105" height="77" viewBox="0 0 105 77" fill="none" xmlns="http://www.w3.org/2000/svg">
<path d="M90.8719 30.3669V32.8755C87.2322 34.1125 84.2102 36.6087 81.7016 40.4584L75.5419 42.8734C77.1752 40.1434 78.0504 37.0049 78.0504 33.7967C78.0504 24.0546 70.1287 16.1337 60.3874 16.1337C50.6454 16.1337 42.7244 24.0554 42.7244 33.7967C42.7244 34.0067 42.7244 34.2052 42.7474 34.4152C38.7106 34.2634 34.2194 34.9869 29.8906 36.1649V30.3669H35.8986C36.7271 30.3669 37.4383 29.7952 37.6139 28.9905C38.1971 26.3072 39.2586 23.7634 40.7524 21.4304C41.1954 20.7422 41.1027 19.8325 40.5194 19.2484L36.2612 14.9902L41.3832 9.86812L45.6415 14.1264C46.2247 14.7096 47.1344 14.8031 47.8235 14.3593C50.1688 12.8541 52.7118 11.8041 55.3835 11.2208C56.1882 11.0461 56.76 10.3341 56.76 9.50554V3.49756H64.005V9.50554C64.005 10.3341 64.5768 11.0453 65.3815 11.2208C68.0648 11.8041 70.6077 12.8541 72.953 14.3593C73.6412 14.8023 74.551 14.7096 75.135 14.1264L79.3818 9.86812L84.5038 14.9902L80.2571 19.2484C79.6738 19.8316 79.5803 20.7414 80.0241 21.4304C81.5171 23.7634 82.5794 26.3072 83.1626 28.9905C83.3373 29.7952 84.0494 30.3669 84.8656 30.3669H90.8719Z" fill="#23D4CE"/>
<path d="M104.736 35.294C103.122 32.6953 99.1702 31.4935 94.3755 32.0874V28.6183C94.3755 27.652 93.5921 26.8686 92.6257 26.8686H86.2396C85.6531 24.7366 84.8016 22.6882 83.6974 20.7531L88.219 16.2307C88.9023 15.5474 88.9023 14.4392 88.219 13.7558L80.6196 6.15646C79.9363 5.47313 78.8289 5.47313 78.1447 6.15646L73.6232 10.678C71.688 9.5747 69.6405 8.72322 67.5085 8.13587V1.74973C67.5085 0.783399 66.7252 0 65.7588 0H55.0111C54.0447 0 53.2613 0.783399 53.2613 1.74973V8.13587C51.1285 8.72322 49.0802 9.57388 47.1459 10.678L42.6243 6.15646C41.941 5.47313 40.8336 5.47313 40.1494 6.15646L32.5509 13.755C31.8675 14.4383 31.8675 15.5466 32.5509 16.2299L37.0724 20.7523C35.9683 22.6882 35.1168 24.7357 34.5303 26.8677H28.1441C27.1778 26.8677 26.3944 27.6511 26.3944 28.6175V37.2496C22.5832 38.5342 19.051 40.115 16.2291 41.7105V39.0404C16.2291 37.9953 15.8017 36.9691 15.0585 36.2251C14.3202 35.486 13.294 35.0627 12.2407 35.0627H3.9777C2.93672 35.0627 1.91297 35.4909 1.16977 36.2365C0.424924 36.983 -0.000819131 38.006 1.18324e-06 39.0412V72.1228C1.18324e-06 73.1654 0.425744 74.1908 1.16977 74.9381C1.90969 75.6797 2.93016 76.1063 3.97688 76.1104H12.2399C13.285 76.1104 14.3104 75.6846 15.056 74.9389C15.8009 74.1949 16.2274 73.1687 16.2274 72.1228V69.7587L68.1886 70.0564C68.1919 70.0564 68.1952 70.0564 68.1992 70.0564C68.4363 70.0564 68.6717 70.0089 68.8891 69.9153C77.7756 66.1017 85.6432 59.2956 89.5422 55.5779L89.6619 55.4639C91.4256 53.7872 101.995 42.3315 104.797 37.0355C105.088 36.4859 105.065 35.8223 104.736 35.294ZM29.8947 30.3688H35.9002C36.723 30.3688 37.4342 29.7963 37.6097 28.9924C38.1954 26.3124 39.2528 23.7686 40.7524 21.4299C41.1962 20.7375 41.0985 19.8294 40.5169 19.2478L36.2628 14.9937L41.3865 9.8692L45.6406 14.1233C46.2214 14.7041 47.1303 14.8017 47.8227 14.3588C50.1589 12.8592 52.7027 11.8019 55.3843 11.2162C56.1882 11.0406 56.7608 10.3294 56.7608 9.50662V3.50028H64.0083V9.50662C64.0083 10.3294 64.5808 11.0406 65.3848 11.2162C68.0647 11.8027 70.6093 12.8592 72.9464 14.3588C73.6379 14.8017 74.5452 14.7041 75.1284 14.1225L79.3826 9.86838L84.5071 14.9929L80.2529 19.247C79.6713 19.8286 79.5737 20.7367 80.0175 21.4291C81.5162 23.7661 82.5736 26.3107 83.1601 28.9915C83.3357 29.7954 84.0469 30.368 84.8697 30.368H90.876V32.8864C87.2404 34.1349 84.2126 36.6196 81.7082 40.4562L75.5238 42.8778C77.1587 40.1486 78.0504 37.0093 78.0504 33.7986C78.0504 24.0582 70.1262 16.1339 60.3858 16.1339C50.6454 16.1339 42.7211 24.0582 42.7211 33.7986C42.7211 34.0086 42.7342 34.2194 42.7425 34.4302C38.7155 34.2809 34.2325 34.9971 29.8955 36.1865V30.3688H29.8947ZM46.287 34.8182C46.2624 34.4778 46.2198 34.139 46.2198 33.7986C46.2198 25.9875 52.5739 19.6342 60.3841 19.6342C68.1943 19.6342 74.5485 25.9884 74.5485 33.7986C74.5485 36.9986 73.4501 40.1133 71.4641 42.6087C70.533 42.183 69.4904 41.9074 68.3608 41.8147L55.0176 40.7138C54.5386 40.5883 53.2375 39.4284 52.377 38.6614C50.5978 37.0757 48.5806 35.2776 46.4905 34.8494C46.424 34.8363 46.3535 34.8313 46.287 34.8182ZM12.7288 72.1228C12.7288 72.2393 12.6697 72.3771 12.5828 72.4632C12.495 72.551 12.3572 72.6101 12.2407 72.6101H3.98427C3.86696 72.6101 3.73407 72.5535 3.64876 72.4665C3.56016 72.3779 3.50028 72.2385 3.50028 72.1228V39.0396C3.50028 38.9288 3.55852 38.7984 3.64794 38.7081C3.73571 38.6204 3.86532 38.5638 3.9777 38.5638H12.2407C12.3654 38.5638 12.4991 38.6171 12.5828 38.7008C12.6706 38.7885 12.7288 38.9255 12.7288 39.042V72.1228ZM87.2519 52.9258L87.128 53.044C80.8977 58.9847 73.8906 63.8901 67.8416 66.5529L16.2291 66.2576V45.7965C23.8309 40.8549 37.5974 36.6008 45.7883 38.2791C46.9556 38.5178 48.67 40.0461 50.0482 41.2741C51.8012 42.836 53.185 44.0705 54.6764 44.1944L68.0729 45.3027C70.4748 45.5012 71.5363 46.7234 72.0039 47.7136C72.6568 49.0958 72.5157 50.8004 71.6446 52.0563C71.0203 52.9562 69.7701 53.9898 67.3707 53.788L48.5536 52.231L48.264 55.7198L67.082 57.2776C67.3666 57.3006 67.648 57.3129 67.9244 57.3129C70.6922 57.3129 73.0654 56.1497 74.5206 54.0513C75.9922 51.9283 76.2908 49.1007 75.3565 46.7021L83.5137 43.5086C83.8648 43.3708 84.1617 43.1239 84.3611 42.8048C87.0427 38.5006 90.237 36.2111 94.4148 35.5983C97.4861 35.1488 99.8675 35.6402 101.079 36.4662C97.902 41.4948 89.1238 51.1457 87.2519 52.9258Z" fill="#2D2D2D"/>
</svg>
