<svg width="78" height="82" viewBox="0 0 78 82" fill="none" xmlns="http://www.w3.org/2000/svg">
<path d="M51.8862 14.3856C40.6921 22.4937 33.1319 15.8446 30.1056 13.0245C30.1056 13.0245 23.6766 17.7167 23.6863 16.6251C23.8307 11.678 26.3578 6.74761 29.7209 3.99561C29.7306 3.9845 29.7403 3.9845 29.7493 3.9845C32.8242 1.88039 36.3311 0.595703 39.9345 0.595703C41.8657 0.595703 43.7684 0.959582 45.5843 1.61929C47.4002 2.27899 49.1495 3.23382 50.7536 4.41712C50.7633 4.42823 50.7633 4.42823 50.7633 4.42823C50.8404 4.49629 50.9265 4.57615 51.0036 4.6442C51.0612 4.70114 51.1189 4.74628 51.1765 4.80322C51.2147 4.83725 51.2536 4.87128 51.2918 4.9053C51.3209 4.95044 51.3591 4.98516 51.3973 5.01919C51.455 5.07613 51.5126 5.13308 51.5702 5.19002C51.6182 5.24696 51.6661 5.2921 51.7147 5.34904C51.8105 5.45112 51.9168 5.5539 52.0029 5.65598C52.0897 5.74695 52.1758 5.83792 52.2529 5.92889C52.282 5.96291 52.3105 5.99694 52.3397 6.03097C52.3494 6.04208 52.3681 6.06499 52.3779 6.0768C52.4452 6.15666 52.5126 6.24763 52.5799 6.32679C52.657 6.41776 52.7334 6.50873 52.8105 6.61081C52.8299 6.63373 52.8487 6.64484 52.8584 6.66775C52.9542 6.79275 53.0508 6.90664 53.1369 7.03163C55.4625 9.91975 56.3944 13.9682 56.3847 17.8917C56.3847 17.8917 56.5805 14.8099 56.4458 20.9167L51.8862 14.3856ZM25.9849 47.8631C19.0906 51.4415 10.4554 53.2046 6.12916 58.7142C2.29316 63.6613 0.679318 68.5028 0.644596 73.3777C0.643207 73.5464 0.643207 73.7089 0.644596 73.877C0.650152 74.2131 0.677928 81.2427 0.677928 81.2427H77.3216C77.3216 81.2427 77.3501 74.2138 77.3556 73.877C77.3577 73.7082 77.3577 73.5457 77.3556 73.3777C77.3209 68.5035 75.7071 63.6613 71.8711 58.7142C67.5455 53.206 58.9145 51.4394 52.0209 47.8631C49.8883 58.4302 47.7426 66.7876 40.2997 76.2963C39.5747 77.2227 39.2664 77.3574 39.0025 77.3574C38.7394 77.3574 38.431 77.2227 37.7061 76.2963C30.2639 66.7876 28.1181 58.4295 25.9849 47.8631Z" fill="#23D4CE"/>
</svg>
