<svg width="80" height="89" viewBox="0 0 80 89" fill="none" xmlns="http://www.w3.org/2000/svg">
<path d="M74.1641 63.6989C70.928 59.5768 65.608 57.4262 60.4644 55.3471C59.445 54.9346 57.9826 54.2943 56.684 53.7158C57.6548 52.72 58.5451 51.6083 59.3381 50.3736C62.3193 45.7425 63.3407 40.6454 63.6331 36.808C65.806 36.158 67.3497 34.3115 67.3497 32.1324V21.7765C67.3497 19.5057 65.7108 17.6217 63.4227 17.037C61.6484 7.23799 52.2487 0 40.999 0C29.75 0 20.3517 7.23868 18.576 17.0384C16.2844 17.6183 14.6435 19.5029 14.6435 21.7813V32.1366C14.6435 34.856 17.0837 37.0691 20.0822 37.0691H20.8225C21.7308 37.0691 22.4662 36.333 22.4662 35.4254C22.4662 34.5178 21.7301 33.7817 20.8225 33.7817H20.0822C19.0476 33.7817 17.9309 33.1532 17.9309 32.1373V21.7813C17.9309 20.7834 19.0267 20.1529 20.042 20.1418C20.8725 20.1321 21.5655 19.5043 21.6572 18.6786C22.6287 9.90458 30.9437 3.28741 40.999 3.28741C51.0543 3.28741 59.3686 9.90181 60.3408 18.6738C60.4318 19.4981 61.1221 20.1244 61.9512 20.1369C62.9665 20.1515 64.0623 20.7827 64.0623 21.7765V32.1317C64.0623 33.1102 63.0185 33.7324 62.0088 33.7678C61.1484 33.7977 60.4568 34.4872 60.4242 35.3483C60.2346 40.3273 58.8673 45.0314 56.5729 48.5959C54.8736 51.2416 51.8432 54.4811 46.7989 55.7206C46.7773 55.2776 46.7148 54.804 46.5975 54.336C46.7961 54.32 46.9933 54.2776 47.178 54.1894C47.487 54.095 47.8079 53.9853 48.1335 53.8603C49.7425 53.236 51.2383 52.3076 52.5779 51.0993C52.7209 50.9715 52.8612 50.8354 52.9987 50.7013C53.1376 50.5673 53.2709 50.434 53.4049 50.2951C55.5681 48.0466 57.202 45.0411 58.0069 41.8342C58.0534 41.6509 58.0978 41.4655 58.1388 41.2815C58.1798 41.0968 58.2187 40.9134 58.2444 40.7738C58.3805 40.1489 58.4964 39.5225 58.5923 38.8927C58.6235 38.6843 58.6541 38.4725 58.6819 38.2607C59.1311 34.799 59.1596 29.1402 59.1145 25.2972C59.1152 25.2486 59.1138 25.1882 59.1124 25.1264C59.0846 22.9292 59.0346 21.3605 59.0298 21.2112C59.0423 17.0815 57.7284 13.4191 55.3792 10.9539C55.2806 10.8407 55.1799 10.7296 55.0604 10.6004C55.0403 10.5782 54.9736 10.508 54.9521 10.4879L54.4841 10.0025C54.4757 9.99416 54.4104 9.92889 54.4014 9.91986L54.1299 9.66431C54.0285 9.56987 53.9216 9.47543 53.8084 9.37543L53.4369 9.05599C53.4257 9.04558 53.3549 8.98516 53.3431 8.97544L52.757 8.51712C52.7084 8.48101 52.6535 8.4449 52.5987 8.41296C48.9259 6.14774 44.8961 4.95055 40.9421 4.95055C37.2477 4.95055 33.452 6.00816 29.9646 8.01019C29.9035 8.04213 29.8445 8.07824 29.7882 8.11644C25.7203 10.9289 23.1988 15.2114 23.0433 19.6126C23.0245 21.1952 22.9808 22.7612 22.937 24.3132C22.7787 29.9367 22.6294 35.2476 23.6308 40.7308C24.6148 45.9237 27.6348 50.4618 31.7097 52.8707C31.8229 52.9374 31.9576 53.0214 32.0937 53.1068C31.7222 53.8006 31.4916 54.5804 31.4916 55.4207V57.3546C31.4916 60.074 33.7041 62.2871 36.4235 62.2871H41.9761C43.5024 62.2871 44.9697 61.4726 45.9003 60.1094C46.1003 59.8164 46.2746 59.4997 46.4211 59.1629C47.8447 58.9011 49.1981 58.4893 50.4814 57.9504C48.6071 66.3134 46.21 73.3604 40.0095 81.2824C40.006 81.2873 40.0046 81.2831 40.0046 81.2831C32.7402 72.007 30.6944 63.9322 28.5966 53.5381C28.4945 53.0325 28.1612 52.6041 27.6952 52.3805C27.2307 52.1576 26.6862 52.1666 26.2286 52.4041C24.1294 53.4936 21.7947 54.4367 19.5364 55.3491C14.3921 57.4282 9.07353 59.5775 5.83056 63.7065C1.94734 68.7147 0.0404503 73.8368 0.00156246 79.3568C-0.000520819 79.5394 -0.000520819 79.7158 0.00156246 79.904C0.00711786 80.2387 0.0348948 87.2496 0.0348948 87.2496C0.0383669 88.1545 0.773068 88.8864 1.6779 88.8864H78.3223C79.2278 88.8864 79.9625 88.1545 79.966 87.2489C79.966 87.2489 79.9944 80.2387 80 79.8929V79.3658C79.9604 73.8361 78.0535 68.714 74.1641 63.6989ZM31.5861 10.8684C34.5798 9.14835 37.8137 8.23866 40.9386 8.23866C44.2711 8.23866 47.6926 9.25946 50.8376 11.192L51.1536 11.44C51.1612 11.4455 51.2335 11.5018 51.2411 11.5066C51.2432 11.5087 51.339 11.592 51.3418 11.5941L52.1154 12.2865L52.2175 12.3885L52.9459 13.1663C54.5174 14.8169 55.4701 17.1842 55.6896 19.9612C55.0695 19.5689 54.35 19.1932 53.4862 18.8543C52.9417 18.6411 52.3244 18.7328 51.8661 19.096C49.1661 21.2334 41.8372 25.3785 32.1229 17.7321C31.7278 17.421 31.2132 17.3092 30.7243 17.4252C30.2354 17.5419 29.8271 17.8759 29.6153 18.3314C29.1674 19.2967 27.4959 20.748 26.2855 21.523C26.2987 20.9119 26.3196 20.298 26.3272 19.6911C26.4439 16.385 28.4084 13.0934 31.5861 10.8684ZM26.8591 40.1301C25.9661 35.2358 26.0564 30.329 26.1994 25.1618C27.8765 24.6493 30.0813 22.9785 31.4819 21.3522C41.7004 28.5089 49.8557 24.5222 53.1015 22.2702C55.3396 23.3528 55.7437 24.559 55.818 24.975C55.8667 28.7471 55.8542 34.4935 55.4201 37.8344L55.3403 38.4003C55.2549 38.9607 55.1507 39.519 55.0208 40.1225C54.9924 40.2739 54.9597 40.4246 54.9264 40.5759C54.8931 40.7266 54.8563 40.878 54.8174 41.0315C54.1493 43.6939 52.8056 46.1744 51.0335 48.0167C50.9279 48.1264 50.823 48.2313 50.7078 48.3424C50.5994 48.4479 50.489 48.5556 50.3751 48.6577C49.3321 49.5972 48.1773 50.3173 46.9495 50.793C46.6579 50.9041 46.3669 51.002 46.0885 51.0833C45.6808 51.1819 45.0649 51.3048 44.5975 51.3951C43.8226 50.802 42.9274 50.4854 41.9719 50.4854H36.4193C35.795 50.4854 35.2027 50.6145 34.652 50.827C34.2728 50.5875 33.7839 50.2819 33.3784 50.0416C30.1549 48.1354 27.6556 44.3335 26.8591 40.1301ZM43.5135 56.8519C43.5066 57.1144 43.501 57.347 43.5108 57.563C43.4274 57.8268 43.3191 58.0546 43.1823 58.2553C43.0628 58.4296 42.624 58.9997 41.9726 58.9997H36.42C35.529 58.9997 34.7763 58.247 34.7763 57.3553V55.4214C34.7763 54.5269 35.529 53.7721 36.42 53.7721H41.9726C42.4816 53.7721 42.8809 54.2186 43.126 54.5929C43.1691 54.6596 43.2177 54.7221 43.2698 54.7818C43.558 55.1075 43.5253 56.3748 43.5135 56.8519ZM76.7119 79.8512C76.7084 80.0832 76.6938 83.4949 76.6848 85.599H3.31536C3.30633 83.4956 3.29244 80.0852 3.28828 79.8568C3.28619 79.7019 3.28619 79.5533 3.28828 79.3894C3.3223 74.609 5.00281 70.1376 8.42146 65.7294C11.1165 62.2976 15.8046 60.4032 20.767 58.3977C22.435 57.7234 24.1432 57.0331 25.8008 56.2692C27.8126 65.8599 30.2347 74.1417 37.4116 83.3102C38.0817 84.1657 38.8331 85.0011 40.0018 85.0011C41.1712 85.0011 41.9233 84.1657 42.5934 83.3095C49.7696 74.1417 52.1925 65.8599 54.2042 56.2692C55.859 57.0324 57.5652 57.722 59.2304 58.3956C64.1935 60.4025 68.8816 62.2969 71.5704 65.7225C74.9953 70.1383 76.6765 74.6083 76.7105 79.3936V79.8512H76.7119Z" fill="#2D2D2D"/>
</svg>
