<svg width="100" height="100" viewBox="0 0 100 100" fill="none" xmlns="http://www.w3.org/2000/svg">
<path fill-rule="evenodd" clip-rule="evenodd" d="M50 96.875C74.1625 96.875 93.75 77.2875 93.75 53.125C93.75 28.9625 74.1625 9.375 50 9.375C25.8375 9.375 6.25 28.9625 6.25 53.125C6.25 60.9715 8.31562 68.3355 11.9327 74.703L6.25 96.875L29.1089 91.5744C35.3168 94.9545 42.4341 96.875 50 96.875ZM50 90.1442C70.4452 90.1442 87.0192 73.5702 87.0192 53.125C87.0192 32.6798 70.4452 16.1058 50 16.1058C29.5548 16.1058 12.9808 32.6798 12.9808 53.125C12.9808 61.019 15.4516 68.3358 19.662 74.3444L16.3462 86.7788L28.9998 83.6154C34.9668 87.733 42.2018 90.1442 50 90.1442Z" fill="#BFC8D0"/>
<path d="M87.5 50C87.5 70.7107 70.7107 87.5 50 87.5C42.1005 87.5 34.7715 85.0575 28.7271 80.8864L15.9091 84.0909L19.268 71.495C15.0029 65.4084 12.5 57.9965 12.5 50C12.5 29.2893 29.2893 12.5 50 12.5C70.7107 12.5 87.5 29.2893 87.5 50Z" fill="url(#paint0_linear_92_26918)"/>
<path fill-rule="evenodd" clip-rule="evenodd" d="M50 93.75C74.1625 93.75 93.75 74.1625 93.75 50C93.75 25.8375 74.1625 6.25 50 6.25C25.8375 6.25 6.25 25.8375 6.25 50C6.25 57.8465 8.31562 65.2105 11.9327 71.578L6.25 93.75L29.1089 88.4494C35.3168 91.8295 42.4341 93.75 50 93.75ZM50 87.0192C70.4452 87.0192 87.0192 70.4452 87.0192 50C87.0192 29.5548 70.4452 12.9808 50 12.9808C29.5548 12.9808 12.9808 29.5548 12.9808 50C12.9808 57.894 15.4516 65.2108 19.662 71.2194L16.3462 83.6538L28.9998 80.4904C34.9668 84.608 42.2018 87.0192 50 87.0192Z" fill="white"/>
<path d="M39.0626 29.6873C38.0224 27.598 36.4267 27.783 34.8146 27.783C31.9336 27.783 27.4414 31.2339 27.4414 37.6563C27.4414 42.9198 29.7608 48.6815 37.5763 57.3005C45.1189 65.6186 55.0293 69.9215 63.2569 69.775C71.4844 69.6285 73.1772 62.5484 73.1772 60.1574C73.1772 59.0977 72.5195 58.5689 72.0665 58.4252C69.2627 57.0797 64.0917 54.5725 62.9151 54.1014C61.7385 53.6304 61.1241 54.2675 60.7422 54.6141C59.6752 55.631 57.5602 58.6276 56.836 59.3016C56.1118 59.9757 55.0321 59.6345 54.5828 59.3797C52.9295 58.7163 48.4466 56.7223 44.8733 53.2584C40.4541 48.9745 40.1948 47.5006 39.3622 46.1887C38.6961 45.1391 39.1849 44.4951 39.4288 44.2137C40.3809 43.1151 41.6956 41.4189 42.2852 40.576C42.8748 39.7331 42.4068 38.4534 42.1259 37.6563C40.918 34.2283 39.8947 31.3588 39.0626 29.6873Z" fill="white"/>
<defs>
<linearGradient id="paint0_linear_92_26918" x1="82.8125" y1="21.875" x2="12.5" y2="87.5" gradientUnits="userSpaceOnUse">
<stop stop-color="#5BD066"/>
<stop offset="1" stop-color="#27B43E"/>
</linearGradient>
</defs>
</svg>
